<?xml version="1.0" encoding="UTF-8"?>
<svg xmlns="http://www.w3.org/2000/svg" width="100" height="100" viewBox="0 0 100 100" fill="none">
  <path d="M31.5151 62.7C34.4242 65.5111 37.8182 67.5889 41.4545 68.9333C45.2121 70.2778 48.8485 71.0111 52.3636 71.0111C53.2121 71.0111 54.0606 70.8889 54.9091 70.7667C55.7576 70.6444 56.6061 70.2778 57.4545 69.9111C58.1818 69.4222 58.7879 68.9333 59.2727 68.2C59.7576 67.4667 60 66.6111 60 65.5111C60 63.5556 58.9091 62.0889 56.6061 60.9889C54.303 59.8889 51.6364 58.7889 48.4848 57.6889C45.697 56.7111 42.9091 55.6111 39.8788 54.5111C36.9697 53.2889 34.303 51.8222 31.7576 49.8667C29.3333 48.0333 27.2727 45.7111 25.697 43.0222C24.1212 40.3333 23.2727 37.0333 23.2727 33.1222C23.2727 29.7 23.8788 26.6444 24.9697 23.9556C26.0606 21.2667 27.6364 18.9444 29.5758 17.1111C31.5152 15.1556 33.4545 13.6889 36 12.4667C38.5455 11.2444 41.4545 10.3889 43.8788 9.77778V0H58.4242V9.53333C62.0606 10.0222 65.4546 11 68.7273 12.3444C72 13.6889 75.0303 15.6444 77.8182 18.2111L67.1515 32.3889C65.0909 30.6778 62.6667 29.2111 60 28.2333C57.3333 27.2556 54.7879 26.7667 52.3636 26.7667C51.3939 26.7667 50.4242 26.7667 49.3333 26.8889C48.2424 27.0111 47.2727 27.2556 46.303 27.6222C45.3333 27.9889 44.6061 28.6 44 29.3333C43.3939 30.0667 43.0303 31.0444 43.0303 32.3889C43.0303 33.4889 43.3939 34.3444 44 35.0778C44.6061 35.8111 45.4545 36.4222 46.6667 37.0333C47.7576 37.6444 49.0909 38.1333 50.4242 38.7444C51.8788 39.2333 53.3333 39.7222 54.9091 40.2111C57.5758 41.0667 60.3636 42.1667 63.3939 43.2667C66.303 44.3667 68.9697 45.9556 71.5152 47.7889C73.9394 49.6222 76 51.9444 77.5758 54.7556C79.1515 57.5667 80 60.9889 80 65.1444C80 68.3222 79.3939 71.1333 78.1818 73.7C76.9697 76.2667 75.3939 78.4667 73.4545 80.3C71.5152 82.1333 69.2121 83.7222 66.5455 85.0667C63.8788 86.2889 60.7273 87.2667 58.303 87.8778V99H44.1212V88.2444C40.4848 87.7556 35.5152 86.6556 31.2727 84.9444C27.0303 83.2333 23.3939 80.7889 20 77.4889L31.5151 62.7Z" fill="white"></path>
</svg>
