<?xml version="1.0" encoding="UTF-8"?>
<svg xmlns="http://www.w3.org/2000/svg" width="100" height="100" viewBox="0 0 100 100" fill="none">
  <path d="M38.254 80.8719H38.8361C39.3517 80.8211 39.8439 80.6492 40.2736 80.3602C40.6603 80.0672 41.0236 79.7352 41.3517 79.3758L42.9259 77.8094C43.754 77.0672 44.5353 76.2742 45.2657 75.4344C45.4844 75.1531 45.6524 74.8328 45.7618 74.4891V74.407V74.4109C46.1524 72.9031 45.254 71.3601 43.7501 70.9578C43.4688 70.8993 43.1798 70.868 42.8907 70.8719C42.3555 70.8758 41.8321 71.0399 41.3829 71.3407C41.0391 71.5985 40.7188 71.8914 40.4337 72.2117L39.0939 73.5516C38.2306 74.4109 37.2853 75.2274 36.4806 76.1336C36.1368 76.5086 35.9063 76.9734 35.8087 77.4733V77.5554V77.5515C35.6954 78.3132 35.8907 79.0827 36.3516 79.696C36.8126 80.321 37.4923 80.7391 38.254 80.8719Z" fill="white"></path>
  <path d="M29.309 70.899C29.6372 70.6333 29.9458 70.3443 30.2348 70.0318L31.7426 68.5357L33.3051 66.9888H33.3012C33.6176 66.7075 33.9106 66.3989 34.1801 66.0708C34.6684 65.3872 34.852 64.5317 34.6957 63.7075C34.5434 62.8989 34.0864 62.1802 33.4223 61.6958C32.8325 61.2935 32.1254 61.0981 31.4106 61.145C30.9263 61.1802 30.4575 61.3247 30.0317 61.563C29.5435 61.9146 29.0942 62.3247 28.6919 62.7739L26.7427 64.7387C26.1685 65.2387 25.6294 65.7778 25.1333 66.352C24.8365 66.7465 24.6451 67.2075 24.5826 67.6958V67.7895C24.5005 68.645 24.7701 69.4965 25.3326 70.1489C25.8755 70.7935 26.6412 71.2075 27.4771 71.313H27.9927C28.4575 71.2818 28.9106 71.1372 29.309 70.899Z" fill="white"></path>
  <path d="M38.0821 72.7272L39.8399 71.0124H39.836C40.2383 70.6725 40.5899 70.2819 40.8828 69.8444C41.2774 69.1373 41.3711 68.2975 41.1368 67.5202C40.8789 66.7545 40.3282 66.1257 39.6095 65.7624C39.0392 65.4889 38.4025 65.3834 37.7736 65.4577C37.3165 65.5045 36.8751 65.6608 36.4845 65.903C36.172 66.1334 35.8829 66.3913 35.6212 66.6764L34.2814 68.0162L31.7189 70.4771C31.254 70.8834 30.8244 71.3326 30.4337 71.8169C29.9884 72.4654 29.8243 73.2622 29.9727 74.0357C30.1602 74.8599 30.6642 75.5787 31.3711 76.0435C31.9961 76.4888 32.7656 76.6763 33.5234 76.567C33.9453 76.4615 34.3398 76.2662 34.6836 75.9966C35.1758 75.5943 35.6446 75.1607 36.082 74.6958L38.0821 72.7272Z" fill="white"></path>
  <path d="M15.75 18L0 50.684C1.0039 51.2856 2.0859 51.8051 3.125 52.3402L8.3945 55.0199H8.39059C9.16793 55.4847 9.97649 55.8832 10.8164 56.2152L26.6014 24.0312L15.75 18Z" fill="white"></path>
  <path d="M89.215 56.3481L100 50.6372L87.938 25.8052L85.1138 19.9146L84.5709 18.8169C84.5005 18.5747 84.3873 18.3481 84.2388 18.145H84.1646L73.4226 24.0317L89.0706 56.3407C89.1839 56.3681 89.1369 56.3754 89.215 56.3481Z" fill="white"></path>
  <path d="M43.766 32.8992C43.1801 33.6843 42.6489 34.5086 42.1763 35.364C40.3716 38.2507 38.6177 41.2351 37.1021 44.2859C37.7739 45.196 38.8169 46.2976 40.0162 46.4968C41.0514 46.6569 42.1021 46.3561 42.8912 45.6725C43.7037 45.0007 44.4381 44.2584 45.1842 43.5358L48.9263 39.903L49.9733 38.8757H49.9693C50.1686 38.6453 50.3951 38.4382 50.6412 38.2585C50.985 38.0554 51.3834 37.9734 51.7818 38.0242C52.0474 38.0593 52.3053 38.157 52.5318 38.3054C53.1607 38.696 53.7466 39.1687 54.356 39.5984L57.7076 41.9851L62.231 45.1101L66.4849 48.0984L79.7549 57.3484L84.1533 54.325L75.833 37.02L73.2275 31.563L72.5088 30.063C72.4189 29.8247 72.2978 29.5982 72.1494 29.3911C71.4111 29.606 70.6494 29.7114 69.8838 29.7075C68.3565 29.5396 66.8526 29.2075 65.3994 28.7232L59.1455 27.1099V27.106C58.0986 26.7661 57.0049 26.5864 55.9033 26.5708C55.3603 26.606 54.8252 26.7153 54.3135 26.8911C53.5674 27.2075 52.8369 27.5591 52.1299 27.9497L48.6846 29.7778C47.4502 30.4497 46.1377 31.0512 44.9737 31.8208L44.9698 31.8247C44.5167 32.1177 44.1098 32.4812 43.766 32.8992Z" fill="white"></path>
  <path d="M27.6169 61.0589C28.3123 60.3792 29.0817 59.7777 29.9099 59.2698C30.6326 58.93 31.4294 58.7972 32.2224 58.8792C33.5701 59.0237 34.8122 59.6839 35.6872 60.719C36.2927 61.4807 36.695 62.3792 36.8591 63.3362C38.113 62.9026 39.4919 63.0159 40.6521 63.6526C41.906 64.3323 42.8396 65.4846 43.2459 66.8479C43.4412 67.4299 43.5194 68.0432 43.4764 68.6526C44.703 68.7581 45.8436 69.3401 46.6522 70.2737C47.453 71.1995 47.8514 72.4065 47.7577 73.6253C47.5624 74.8831 46.914 76.0237 45.9296 76.8284L50.8944 79.8167L52.7382 80.9495C53.3749 81.4026 54.0663 81.7776 54.7968 82.0628C55.5078 82.3089 56.2734 82.3597 57.0116 82.2034C58.0194 81.9613 58.8788 81.3206 59.3983 80.4261C59.8397 79.7152 59.9842 78.8597 59.7928 78.0433C59.7382 77.8363 59.6288 77.6488 59.4725 77.5043C59.203 77.266 58.9178 77.0433 58.621 76.8363L56.8905 75.5629L53.5389 73.102H53.5428C52.1209 72.1528 50.7537 71.1254 49.4451 70.0278C50.0271 70.2895 50.5857 70.5942 51.117 70.9458L53.617 72.4731L60.5076 76.7817L62.1678 77.8325C62.5545 78.1059 62.9725 78.3325 63.4139 78.5044C64.1522 78.7583 64.9608 78.727 65.6795 78.4106C66.5506 77.9809 67.2147 77.227 67.5272 76.3051C67.8436 75.4653 67.8084 74.5317 67.4295 73.7192C67.2694 73.3403 67.0428 72.9966 66.7576 72.6997C65.9608 71.9927 65.0935 71.3677 64.1717 70.8325L61.8592 69.2231L57.8397 66.3364V66.3325C56.9022 65.727 56.0194 65.0395 55.1991 64.2817C55.9101 64.6255 56.6014 65.0044 57.2733 65.4223L59.9999 67.0629L65.4765 70.4145L67.8554 71.9418C68.2656 72.227 68.6953 72.477 69.1445 72.6918C69.7305 72.9262 70.3672 72.9887 70.9883 72.8676H71.0743C72.0001 72.641 72.8048 72.0629 73.3126 71.2543C73.8829 70.4301 74.0821 69.4027 73.8555 68.4262C73.711 67.8168 73.4063 67.2582 72.9727 66.809C72.5509 66.4301 72.1016 66.0863 71.6289 65.7699L68.7148 63.7074L60.7343 57.9379C61.832 58.4379 62.8905 59.0277 63.8984 59.6996L70.6484 63.7894L72.9218 65.2152H72.9179C73.3789 65.5121 73.875 65.7542 74.3906 65.9378C75.0899 66.1214 75.832 66.0589 76.4883 65.7621C77.5156 65.305 78.3203 64.4535 78.7149 63.3988L78.836 62.9964V62.9027C79.0587 61.9261 78.8829 60.9027 78.3477 60.0589C78.1524 59.7425 77.9063 59.4573 77.6173 59.2229C75.8868 57.7815 73.8907 56.5745 72.0626 55.2698L59.3286 46.3557L51.9575 41.2034C51.1489 42.0316 50.2661 42.7972 49.3794 43.5589C47.813 45.0394 46.0864 46.3441 44.2349 47.4417C43.1529 48.0824 41.9302 48.4573 40.6763 48.5276C39.0786 48.5472 37.5474 47.8909 36.4575 46.7229L34.852 44.8674C35.1957 43.4846 35.6684 42.1408 36.2661 40.844C37.4302 38.1721 38.7934 35.5862 40.3481 33.1174C41.02 32.0236 41.77 30.5783 42.8833 29.8791L47.3599 27.4455L47.356 27.4494C46.3404 26.8557 45.1802 26.551 44.0044 26.5784C42.7544 26.7112 41.52 26.9534 40.313 27.301L34.0474 28.7737C33.1333 29.0511 32.2036 29.2581 31.2583 29.3987C30.1724 29.4925 29.0786 29.3909 28.0278 29.0979L15.9108 53.8949C16.4615 54.141 16.9694 54.4652 17.4264 54.8598C17.8521 55.2582 18.2428 55.6918 18.5983 56.1528L20.1452 57.9887L24.7975 63.4301L27.6169 61.0589Z" fill="white"></path>
</svg>
