<?xml version="1.0" encoding="UTF-8"?>
<svg xmlns="http://www.w3.org/2000/svg" width="100" height="100" viewBox="0 0 100 100" fill="none">
  <path fill-rule="evenodd" clip-rule="evenodd" d="M95.6015 63.127H4.39814C4.39406 63.2459 4.38591 63.369 4.38184 63.4879C1.83018 64.3779 0 66.8183 0 69.6893V78.4377C0 82.0633 2.91855 85 6.52183 85H93.4782C97.0815 85 100 82.0633 100 78.4377V69.6893C100 66.8182 98.1657 64.3779 95.6182 63.4879C95.6141 63.369 95.6056 63.2459 95.6015 63.127ZM76.0851 76.2517H95.6505V71.8754H76.0851C74.8867 71.8754 73.9125 72.8556 73.9125 74.0614C73.9125 75.2672 74.8867 76.2475 76.0851 76.2475V76.2517ZM67.3907 71.8754H58.6963C57.4979 71.8754 56.5237 72.8556 56.5237 74.0614C56.5237 75.2672 57.4979 76.2475 58.6963 76.2475H67.3907C68.589 76.2475 69.5632 75.2672 69.5632 74.0614C69.5632 72.8556 68.589 71.8754 67.3907 71.8754ZM36.9948 20.8487C37.1537 19.3722 37.8141 17.9858 38.8658 16.9236C40.0886 15.6931 41.7476 15 43.4759 15H56.5196C58.252 15 59.9068 15.6932 61.1297 16.9236C62.0591 17.8587 62.6787 19.0481 62.9233 20.3278V41.2496C62.9233 42.4554 63.8975 43.4356 65.0958 43.4356C66.2942 43.4356 67.2684 42.4554 67.2684 41.2496V22.7847C70.6312 24.171 73.7861 25.9469 76.6924 28.0551L69.6366 49.3454C69.2575 50.4897 69.873 51.7283 71.0143 52.1139C72.1515 52.4953 73.3825 51.876 73.7657 50.7276L80.3119 30.9755C88.183 38.0177 93.6248 47.7583 95.19 58.7505H4.81001C6.33851 48.025 11.556 38.4891 19.1215 31.4879L25.4966 50.7276C25.8757 51.8719 27.1108 52.4913 28.248 52.1139C29.3852 51.7325 30.0008 50.4897 29.6257 49.3454L22.7167 28.4898C25.7575 26.2052 29.0918 24.2899 32.6502 22.8175V41.2498C32.6502 42.4556 33.6244 43.4358 34.8227 43.4358C36.0211 43.4358 36.9953 42.4556 36.9953 41.2498L36.9948 20.8487Z" fill="white"></path>
</svg>
